<?xml version="1.0" ?><svg contentScriptType="text/ecmascript" contentStyleType="text/css" height="60.000000px" preserveAspectRatio="xMidYMid meet" version="1.0" viewBox="0 0 60.000000 60.000000" width="60.000000px" xmlns="http://www.w3.org/2000/svg" xmlns:xlink="http://www.w3.org/1999/xlink" zoomAndPan="magnify"><g><path d="M 1.0 26.217987 c 0.0 -2.786 2.256 -5.044 5.043 -5.044 h 47.913 c 2.786 0.0 5.044 2.258 5.044 5.044 v 25.217 c 0.0 2.785 -2.0 5.565 -5.044 5.565 h -47.913 C 3.0 57.0 1.0 54.21997 1.0 51.434998 V 26.217987 z" fill="none" stroke="#231F20" stroke-linecap="round" stroke-linejoin="round" stroke-miterlimit="10" stroke-width="2"/><path d="M 53.0 36.0 c 0.0 2.0 -2.174 3.0 -4.0 3.0 h -38.0 c -3.0 0.0 -4.0 -0.911 -4.0 -3.0 v -6.0 c -0.043 -2.0 2.174 -3.0 4.0 -3.0 h 38.174 c 1.826 0.0 3.826 0.911 3.826 3.0 V 36.0 z" fill="none" stroke="#231F20" stroke-linecap="round" stroke-linejoin="round" stroke-miterlimit="10" stroke-width="2"/><circle cx="11.087006" cy="48.913025" fill="none" r="2.522" stroke="#231F20" stroke-linecap="round" stroke-linejoin="round" stroke-miterlimit="10" stroke-width="2"/><circle cx="48.912994" cy="48.913025" fill="none" r="2.522" stroke="#231F20" stroke-linecap="round" stroke-linejoin="round" stroke-miterlimit="10" stroke-width="2"/><path d="M 41.0 49.0 c 0.0 1.393 -1.0 2.0 -2.174 2.0 h -17.652 C 20.0 51.0 19.0 50.393005 19.0 49.0 s 1.0 -2.0 2.174 -2.0 h 17.652 C 40.0 47.0 41.0 47.606995 41.0 49.0 z" fill="none" stroke="#231F20" stroke-linecap="round" stroke-linejoin="round" stroke-miterlimit="10" stroke-width="2"/><line fill="none" stroke="#231F20" stroke-linecap="round" stroke-linejoin="round" stroke-miterlimit="10" stroke-width="2" x1="7.0" x2="53.0" y1="31.0" y2="31.0"/><line fill="none" stroke="#231F20" stroke-linecap="round" stroke-linejoin="round" stroke-miterlimit="10" stroke-width="2" x1="7.0440063" x2="52.955994" y1="35.0" y2="35.0"/><line fill="none" stroke="#231F20" stroke-linecap="round" stroke-linejoin="round" stroke-miterlimit="10" stroke-width="2" x1="33.0" x2="33.0" y1="47.0" y2="51.0"/><line fill="none" stroke="#231F20" stroke-linecap="round" stroke-linejoin="round" stroke-miterlimit="10" stroke-width="2" x1="6.0429993" x2="46.39099" y1="21.174011" y2="1.0"/><line fill="none" stroke="#231F20" stroke-linecap="round" stroke-linejoin="round" stroke-miterlimit="10" stroke-width="2" x1="13.0" x2="13.0" y1="57.0" y2="59.0"/><line fill="none" stroke="#231F20" stroke-linecap="round" stroke-linejoin="round" stroke-miterlimit="10" stroke-width="2" x1="47.0" x2="47.0" y1="57.0" y2="59.0"/></g></svg>